# Blender v2.72 (sub 0) OBJ File: ''
# www.blender.org
mtllib cube.mtl
o Cube.001
v 0.250000 -0.250000 0.250000
v -0.250000 -0.250000 0.250000
v -0.250000 -0.250000 -0.250000
v -0.250000 0.250000 -0.250000
v -0.250000 0.250000 0.250000
v 0.250000 0.250000 0.250000
v 0.250000 -0.250000 -0.250000
v 0.250000 0.250000 -0.250000
vt 0.000000 0.000000
vt 1.000000 0.000000
vt 1.000000 1.000000
vn 0.000000 -1.000000 0.000000
vn 0.000000 1.000000 0.000000
vn 1.000000 0.000000 0.000000
vn 0.000000 -0.000000 1.000000
vn -1.000000 -0.000000 0.000000
vn 0.000000 0.000000 -1.000000
usemtl Material.001
s off
f 1/1/1 2/2/1 3/3/1
f 4/1/2 5/2/2 6/3/2
f 7/1/3 8/2/3 6/3/3
f 1/1/4 6/2/4 5/3/4
f 5/1/5 4/2/5 3/3/5
f 7/1/6 3/2/6 4/3/6
f 7/1/1 1/2/1 3/3/1
f 8/1/2 4/2/2 6/3/2
f 1/1/3 7/2/3 6/3/3
f 2/1/4 1/2/4 5/3/4
f 2/1/5 5/2/5 3/3/5
f 8/1/6 7/2/6 4/3/6
