# Blender v2.69 (sub 0) OBJ File: ''
# www.blender.org
mtllib goals.mtl
o Cylinder.002
v 3.993286 -0.499990 -28.000004
v 3.993285 -0.499990 -28.000004
v 3.993285 -0.499990 -28.000006
v -4.006713 -0.499990 -28.000006
v -4.006713 1.000010 -28.000002
v -4.006713 1.000010 -28.000002
v 3.993285 1.000010 -28.000002
v 3.993285 1.000010 -28.000002
v 3.993284 -0.500010 28.000000
v -4.006713 -0.500010 28.000000
v 3.993284 0.999990 28.000004
v 3.993284 0.999992 25.000004
v -4.006713 0.999992 25.000004
v 6.493286 -0.500008 24.999996
v 7.663828 -0.500010 24.884708
v 3.993286 1.000008 -25.000004
v 3.993285 1.000008 -25.000004
v 3.993286 1.000010 -28.000002
v 14.993283 -0.500008 24.999989
v -4.006713 -0.500008 25.000000
v 3.993284 -0.500008 24.999996
v 3.993284 -0.500008 26.999992
v -4.006713 -0.499992 -25.000006
v -4.006713 -0.499992 -27.000004
v -4.006713 1.000008 -25.000002
v 3.993286 -0.499992 -25.000010
v -4.006713 -0.500008 26.999992
v 3.993286 -0.499992 -27.000010
v -4.006713 0.999990 28.000004
v -6.506715 -0.500008 24.999996
v -4.006713 -0.499990 -28.000004
vt 0.000000 0.000000
vt 0.920961 0.363025
vt 0.999891 0.363025
vt 0.920961 0.468265
vt 0.367075 0.177215
vt 0.099512 0.000109
vt 0.000109 0.362807
vt 1.000000 0.000000
vt 0.000000 1.000000
vt 0.500000 0.363024
vt 0.499999 0.468264
vt 1.000000 1.000000
vt 0.478296 0.216648
vt 0.389730 0.201253
vt 0.479185 0.240744
vt 0.707261 0.656117
vt 0.716230 0.657009
vt 0.722135 0.706988
vt 0.000109 0.520885
vt 0.000109 0.363025
vt 0.421070 0.520884
vt 0.806198 0.647759
vt 0.801741 0.648385
vt 0.684746 0.142843
vt 0.502609 0.205736
vt 0.707740 0.362807
vt 0.421069 0.363024
vt 0.000123 0.000265
vt 0.969057 0.000122
vt 0.000125 0.017176
vt 0.977586 0.017182
vt 0.421070 0.521102
vt 0.421070 0.600033
vt 0.000109 0.521102
vt 0.999891 0.520884
vt 0.920961 0.520885
vt 0.381124 0.221580
vt 0.499999 0.520885
vt 0.000109 0.600033
vn 0.000000 -1.000000 0.000000
vn 0.000000 0.000000 1.000000
vn -1.000000 0.000000 0.000000
vn 1.000000 0.000000 0.000000
vn 0.000000 -0.000001 1.000000
vn 0.000000 -1.000000 -0.000001
vn 0.000000 0.000003 -1.000000
vn 0.000000 1.000000 0.000000
vn 0.000000 -0.000003 1.000000
usemtl None
s off
f 1/1/1 2/1/1 3/1/1
f 4/1/2 5/1/2 6/1/2
f 26/2/3 16/3/3 28/4/3
f 8/1/2 7/1/2 2/1/2
f 5/1/2 7/1/2 8/1/2
f 27/5/4 20/6/4 13/7/4
f 2/1/5 1/8/5 8/9/5
f 16/1/6 17/8/6 18/9/6
f 26/2/1 23/10/1 24/11/1
f 7/1/2 3/1/2 2/1/2
f 1/8/5 18/12/5 8/9/5
f 17/8/1 8/12/1 18/9/1
f 9/13/7 10/14/7 11/15/7
f 31/16/2 4/17/2 6/18/2
f 8/19/1 17/20/1 6/21/1
f 1/22/8 3/23/8 4/17/8
f 31/16/8 1/22/8 4/17/8
f 21/24/3 22/25/3 12/26/3
f 23/10/4 24/11/4 25/27/4
f 4/28/1 3/29/1 31/30/1
f 3/29/1 1/31/1 31/30/1
f 12/26/6 11/15/6 13/7/6
f 20/6/1 21/24/1 22/25/1
f 3/32/9 7/33/9 4/34/9
f 16/3/3 18/35/3 1/36/3
f 28/4/3 16/3/3 1/36/3
f 10/14/4 27/5/4 13/7/4
f 29/37/4 10/14/4 13/7/4
f 28/4/1 26/2/1 24/11/1
f 1/36/6 28/4/6 31/38/6
f 28/4/6 24/11/6 31/38/6
f 10/14/7 29/37/7 11/15/7
f 17/20/1 25/27/1 6/21/1
f 22/25/3 9/13/3 12/26/3
f 9/13/3 11/15/3 12/26/3
f 24/11/4 31/38/4 25/27/4
f 31/38/4 6/21/4 25/27/4
f 11/15/6 29/37/6 13/7/6
f 27/5/1 20/6/1 22/25/1
f 10/14/6 27/5/6 9/13/6
f 27/5/6 22/25/6 9/13/6
f 7/33/9 5/39/9 4/34/9
l 14 15
l 19 21
