# Blender v2.69 (sub 0) OBJ File: ''
# www.blender.org
mtllib goal2.mtl
o Cylinder.000
v -3.993250 -0.499980 28.000010
v -3.993249 -0.499980 28.000010
v -3.993249 -0.499980 28.000011
v 4.006749 -0.499980 28.000000
v 4.006749 1.000020 27.999996
v 4.006749 1.000020 27.999996
v -3.993254 -0.499984 25.000015
v -3.993254 1.000016 25.000010
v -3.993251 -0.499984 27.000015
v -3.993249 1.000020 28.000008
v -3.993249 1.000020 28.000008
v -3.993253 1.000016 25.000010
v -3.993250 1.000020 28.000008
v 4.006745 -0.499984 25.000000
v 4.006747 -0.499984 26.999998
v 4.006749 -0.499980 27.999998
v 4.006745 1.000016 24.999996
vt 0.503177 0.179091
vt 0.502792 0.179995
vt 0.501993 0.180143
vt 0.396835 0.177478
vt 0.397685 0.211355
vt 0.396845 0.212517
vt 0.943270 0.000066
vt 0.999934 0.419392
vt 0.613574 0.154867
vt 0.510558 0.214617
vt 0.509178 0.212238
vt 0.994865 0.431010
vt 0.511082 0.214158
vt 0.103014 0.000066
vt 0.323360 0.145355
vt 0.396087 0.175796
vt 0.004302 0.431141
vt 0.004302 0.431177
vt 0.002254 0.431177
vt 0.002254 0.431141
vt 0.000066 0.283486
vt 0.000066 0.431141
vt 0.002105 0.431141
vt 0.000066 0.431177
vt 0.002123 0.431177
vn 0.000000 -1.000000 0.000000
vn 0.000000 0.000000 1.000000
vn 1.000000 0.000000 -0.000001
vn 0.000000 -0.000001 -1.000000
vn 0.000000 -1.000000 0.000001
vn 1.000000 0.000000 0.000000
vn 0.000000 -1.000000 0.000002
vn -1.000000 0.000000 0.000000
vn 0.000000 1.000000 0.000000
vn -1.000000 0.000000 0.000001
vn -0.000001 -0.000003 -1.000000
vn 0.000000 -1.000000 0.000003
vn -0.000002 -0.000003 -1.000000
usemtl None.000
s off
f 1/1/1 2/2/1 3/3/1
f 4/4/2 5/5/2 6/6/2
f 7/7/3 8/8/3 9/9/3
f 10/10/2 11/11/2 2/2/2
f 5/5/2 11/11/2 10/10/2
f 2/2/4 1/1/4 10/10/4
f 8/8/5 12/12/5 13/13/5
f 7/7/1 14/14/1 15/15/1
f 11/11/6 3/3/6 2/2/6
f 1/1/4 13/13/4 10/10/4
f 12/12/7 10/10/7 13/13/7
f 16/16/8 4/4/8 6/6/8
f 10/10/5 12/12/5 6/6/5
f 1/17/9 3/18/9 4/19/9
f 16/20/9 1/17/9 4/19/9
f 14/14/10 15/15/10 17/21/10
f 4/22/1 3/23/1 16/24/1
f 3/23/1 1/25/1 16/24/1
f 3/3/11 11/11/11 4/4/11
f 13/13/3 1/1/3 8/8/3
f 8/8/3 1/1/3 9/9/3
f 9/9/1 7/7/1 15/15/1
f 1/1/12 9/9/12 16/16/12
f 9/9/12 15/15/12 16/16/12
f 12/12/5 17/21/5 6/6/5
f 15/15/10 16/16/10 17/21/10
f 16/16/10 6/6/10 17/21/10
f 11/11/13 5/5/13 4/4/13
