# Blender v2.69 (sub 0) OBJ File: 'walls.blend'
# www.blender.org
mtllib goal1.mtl
o Cylinder.001
v 3.993286 -0.499985 -28.000004
v 3.993285 -0.499985 -28.000004
v 3.993285 -0.499985 -28.000006
v -4.006713 -0.499985 -28.000006
v -4.006713 1.000015 -28.000002
v -4.006713 1.000015 -28.000002
v 3.993286 -0.499988 -25.000010
v 3.993286 1.000012 -25.000004
v 3.993286 -0.499988 -27.000010
v 3.993285 1.000015 -28.000002
v 3.993285 1.000015 -28.000002
v 3.993285 1.000012 -25.000004
v 3.993286 1.000015 -28.000002
v -4.006713 -0.499988 -25.000006
v -4.006713 -0.499988 -27.000004
v -4.006713 -0.499985 -28.000004
v -4.006713 1.000012 -25.000002
vt 0.000000 0.000000
vt 0.921004 0.000058
vt 0.999942 0.000058
vt 0.921004 0.105309
vt 1.000000 0.000000
vt 0.000000 1.000000
vt 0.500001 0.000058
vt 0.500001 0.105309
vt 1.000000 1.000000
vt 0.707261 0.656117
vt 0.716230 0.657009
vt 0.722135 0.706988
vt 0.000109 0.520885
vt 0.000109 0.363025
vt 0.421070 0.520884
vt 0.806198 0.647759
vt 0.801741 0.648385
vt 0.421062 0.000058
vt 0.000123 0.000265
vt 0.969057 0.000122
vt 0.000125 0.017176
vt 0.977586 0.017182
vt 0.421061 0.158050
vt 0.421061 0.236989
vt 0.000058 0.158050
vt 0.999891 0.520884
vt 0.920961 0.520885
vt 0.999891 0.363025
vt 0.921004 0.157934
vt 0.500001 0.157934
vt 0.000058 0.000059
vt 0.421063 0.157934
vt 0.421070 0.600033
vt 0.000109 0.600033
vt 0.000109 0.521102
vn 0.000000 -1.000000 0.000000
vn 0.000000 0.000000 1.000000
vn -1.000000 0.000000 0.000000
vn 0.000000 -0.000001 1.000000
vn 0.000000 -1.000000 -0.000001
vn 0.000000 1.000000 0.000000
vn 1.000000 0.000000 0.000000
vn 0.000000 -0.000003 1.000000
vn 0.000000 -1.000000 -0.000002
usemtl None.001
s off
f 1/1/1 2/1/1 3/1/1
f 4/1/2 5/1/2 6/1/2
f 7/2/3 8/3/3 9/4/3
f 10/1/2 11/1/2 2/1/2
f 5/1/2 11/1/2 10/1/2
f 2/1/4 1/5/4 10/6/4
f 8/1/5 12/5/5 13/6/5
f 7/2/1 14/7/1 15/8/1
f 11/1/2 3/1/2 2/1/2
f 1/5/4 13/9/4 10/6/4
f 12/5/5 10/9/5 13/6/5
f 16/10/2 4/11/2 6/12/2
f 10/13/5 12/14/5 6/15/5
f 1/16/6 3/17/6 4/11/6
f 16/10/6 1/16/6 4/11/6
f 14/7/7 15/8/7 17/18/7
f 4/19/1 3/20/1 16/21/1
f 3/20/1 1/22/1 16/21/1
f 3/23/8 11/24/8 4/25/8
f 13/26/3 1/27/3 8/28/3
f 8/3/3 1/29/3 9/4/3
f 9/4/1 7/2/1 15/8/1
f 1/29/9 9/4/9 16/30/9
f 9/4/9 15/8/9 16/30/9
f 12/31/5 17/18/5 6/32/5
f 15/8/7 16/30/7 17/18/7
f 16/30/7 6/32/7 17/18/7
f 11/33/8 5/34/8 4/35/8
