# Blender v2.69 (sub 0) OBJ File: ''
# www.blender.org
mtllib square.mtl
o Cube.001_Cube.002
v -0.300000 -0.050000 0.300000
v -0.300000 -0.050000 -0.300000
v 0.300000 -0.050000 -0.300000
v 0.300000 -0.050000 0.300000
v -0.300000 0.450000 0.300000
v -0.300000 0.450000 -0.300000
v 0.300000 0.450000 -0.300000
v 0.300000 0.450000 0.300000
v -1.000000 -0.125000 1.000000
v -1.000000 -0.125000 -1.000000
v 1.000000 -0.125000 -1.000000
v 1.000000 -0.125000 1.000000
v -1.000000 0.125000 1.000000
v -1.000000 0.125000 -1.000000
v 1.000000 0.125000 -1.000000
v 1.000000 0.125000 1.000000
vt 0.407833 0.517975
vt 0.454883 0.562922
vt 0.000100 0.030885
vt 0.513758 0.518448
vt 0.000100 0.967740
vt 0.471912 0.451087
vt 0.911801 0.993960
vt 0.999900 0.000100
vt 0.000000 0.000000
vt 1.000000 0.000000
vt 0.000000 1.000000
vt 1.000000 1.000000
vn -1.000000 0.000000 0.000000
vn 0.000000 0.000000 -1.000000
vn 1.000000 0.000000 0.000000
vn 0.000000 0.000000 1.000000
vn 0.000000 -1.000000 0.000000
vn 0.000000 1.000000 0.000000
usemtl None
s off
f 5/1/1 6/2/1 1/3/1
f 6/2/2 7/4/2 2/5/2
f 7/4/3 8/6/3 3/7/3
f 8/6/4 5/1/4 4/8/4
f 1/9/5 2/9/5 4/9/5
f 8/6/6 7/4/6 5/1/6
f 13/9/1 14/10/1 9/11/1
f 14/9/2 15/10/2 10/11/2
f 15/9/3 16/10/3 11/11/3
f 16/9/4 13/10/4 12/11/4
f 9/9/5 10/10/5 12/11/5
f 16/9/6 15/10/6 13/11/6
f 6/2/1 2/5/1 1/3/1
f 7/4/2 3/7/2 2/5/2
f 8/6/3 4/8/3 3/7/3
f 5/1/4 1/3/4 4/8/4
f 2/9/5 3/9/5 4/9/5
f 7/4/6 6/2/6 5/1/6
f 14/10/1 10/12/1 9/11/1
f 15/10/2 11/12/2 10/11/2
f 16/10/3 12/12/3 11/11/3
f 13/10/4 9/12/4 12/11/4
f 10/10/5 11/12/5 12/11/5
f 15/10/6 14/12/6 13/11/6
