# Blender v2.69 (sub 0) OBJ File: ''
# www.blender.org
mtllib table.mtl
o Cube_Cube.001
v -12.500000 0.499996 25.000000
v -12.500000 0.500004 -25.000000
v -12.500000 -0.500004 25.000000
v 12.500000 0.500004 -25.000000
v -12.500000 -0.499996 -25.000000
v 12.500000 0.499996 25.000000
v 12.500000 -0.499996 -25.000000
v 12.500000 -0.500004 25.000000
v -12.500000 0.499996 27.000000
v -12.500000 -0.500004 27.000000
v 12.500000 -0.500004 27.000000
v -12.500000 0.499996 27.000000
v 12.500000 0.499996 27.000000
v 12.500000 -0.500004 27.000000
v -12.500000 0.500004 -27.000000
v 12.500000 0.500004 -27.000000
v -12.500000 -0.499996 -27.000000
v 12.500000 0.500004 -27.000000
v -12.500000 -0.499996 -27.000000
v 12.500000 -0.499996 -27.000000
vt 0.000000 0.000000
vt 1.000000 0.000000
vt 0.000000 1.000000
vt 1.000000 1.000000
vn -1.000000 0.000000 0.000000
vn 0.039968 -0.999201 -0.000000
vn 1.000000 0.000000 0.000000
vn -0.039968 -0.999201 -0.000000
vn 0.000000 -1.000000 -0.000000
vn 0.000000 1.000000 0.000000
vn -0.039968 0.999201 0.000000
vn 0.039968 0.999201 0.000000
vn 0.000000 0.000000 1.000000
vn 0.000000 0.000000 -1.000000
usemtl None
s off
f 1/1/1 2/2/1 3/3/1
f 4/2/2 5/3/2 16/2/2
f 4/1/3 6/2/3 7/3/3
f 1/2/4 8/3/4 12/2/4
f 3/1/5 5/2/5 8/3/5
f 4/2/6 1/3/6 6/1/6
f 2/2/1 5/4/1 3/3/1
f 5/3/7 4/2/7 19/3/7
f 6/2/3 8/4/3 7/3/3
f 8/3/8 1/2/8 11/3/8
f 5/2/5 7/4/5 8/3/5
f 2/4/6 1/3/6 4/2/6
f 9/2/9 10/4/9 11/3/9
f 3/1/5 8/3/5 10/1/5
f 1/1/1 3/3/1 9/1/1
f 13/1/9 12/2/9 14/3/9
f 8/4/3 6/2/3 14/4/3
f 6/1/6 1/3/6 13/1/6
f 15/1/10 16/2/10 17/3/10
f 5/4/1 2/2/1 17/4/1
f 2/4/6 4/2/6 15/4/6
f 18/2/10 20/4/10 19/3/10
f 4/1/3 7/3/3 18/1/3
f 7/4/5 5/2/5 20/4/5
f 5/3/2 17/3/2 16/2/2
f 8/3/4 14/3/4 12/2/4
f 4/2/7 18/2/7 19/3/7
f 1/2/8 9/2/8 11/3/8
f 8/3/5 11/3/5 10/1/5
f 3/3/1 10/3/1 9/1/1
f 6/2/3 13/2/3 14/4/3
f 1/3/6 12/3/6 13/1/6
f 2/2/1 15/2/1 17/4/1
f 4/2/6 16/2/6 15/4/6
f 7/3/3 20/3/3 18/1/3
f 5/2/5 19/2/5 20/4/5
