# Blender v2.76 (sub 0) OBJ File: ''
# www.blender.org
mtllib building3.mtl
o bldgs2.002
v 0.286590 9.516410 6.464359
v 0.286590 9.516404 21.377043
v 0.286590 0.089232 21.377041
v 0.286590 0.089237 6.464358
v -14.625962 0.089237 6.464358
v -14.625962 0.089232 21.377041
v -14.625962 9.516404 21.377043
v -14.625962 9.516410 6.464359
v 15.797087 5.541906 6.464359
v 15.797087 5.541901 21.377041
v 15.797087 0.089232 21.377041
v 15.797087 0.089237 6.464358
v 0.361060 8.635766 -8.951309
v 0.361060 8.635760 5.961388
v 0.361060 0.089238 5.961387
v 0.361060 0.089242 -8.951314
v -14.551347 0.089242 -8.951314
v -14.551347 0.089238 5.961387
v -14.551347 8.635760 5.961388
v -14.551347 8.635766 -8.951309
v 1.273910 5.541915 -23.979355
v 1.273910 5.541911 -9.066803
v 1.273910 0.089242 -9.066804
v 1.273910 0.089246 -23.979355
v -13.638642 0.089246 -23.979355
v -13.638642 0.089242 -9.066804
v -13.638642 5.541911 -9.066803
v -13.638642 5.541915 -23.979355
v -10.329621 10.831725 10.760661
v -10.329621 10.831724 17.080816
v -4.009759 10.831724 17.080816
v -4.009759 10.831725 10.760661
v 0.286590 0.089237 6.464358
v 0.286590 0.089232 21.377041
v -14.625962 0.089232 21.377041
v -14.625962 0.089237 6.464358
v -14.625962 0.089237 6.464358
v -14.625962 9.516410 6.464359
v 0.286590 9.516410 6.464359
v 0.286590 0.089237 6.464358
v 5.181029 6.857135 10.760659
v 5.181029 6.857133 17.080816
v 11.500754 6.857133 17.080816
v 11.500754 6.857135 10.760659
v 15.797087 0.089237 6.464358
v 15.797087 0.089232 21.377041
v 0.884536 0.089232 21.377041
v 0.884536 0.089237 6.464358
v 0.884536 0.089237 6.464358
v 0.884536 0.089232 21.377041
v 0.884536 5.541901 21.377041
v 0.884536 5.541906 6.464359
v -10.255006 9.951023 -4.654967
v -10.255006 9.951021 1.664608
v -3.935281 9.951021 1.664608
v -3.935281 9.951023 -4.654967
v 0.361060 0.089242 -8.951314
v 0.361060 0.089238 5.961387
v -14.551347 0.089238 5.961387
v -14.551347 0.089242 -8.951314
v 0.361060 0.089238 5.961387
v 0.361060 8.635760 5.961388
v -14.551347 8.635760 5.961388
v -14.551347 0.089238 5.961387
v -9.342149 6.857145 -19.682711
v -9.342149 6.857143 -13.362995
v -3.022431 6.857143 -13.362995
v -3.022431 6.857145 -19.682711
v 1.273910 0.089246 -23.979355
v 1.273910 0.089242 -9.066804
v -13.638642 0.089242 -9.066804
v -13.638642 0.089246 -23.979355
v 1.273910 0.089242 -9.066804
v 1.273910 5.541911 -9.066803
v -13.638642 5.541911 -9.066803
v -13.638642 0.089242 -9.066804
v 0.286590 9.516404 21.377043
v 0.127036 10.080754 21.217394
v -14.466401 10.080754 21.217394
v -14.625962 9.516404 21.377043
v -14.466401 10.080761 6.624063
v 0.127036 10.080761 6.624063
v -0.586267 9.915524 20.504232
v -13.753114 9.915524 20.504232
v -13.753114 9.915529 7.337211
v -0.586267 9.915529 7.337211
v -0.755128 9.210232 20.335146
v -13.584237 9.210232 20.335146
v -13.584237 9.210236 7.506371
v -0.755128 9.210236 7.506371
v -3.997392 9.444407 17.092873
v -10.341981 9.444407 17.092873
v -10.341981 9.444409 10.748573
v -3.997392 9.444409 10.748573
v 15.797087 5.541901 21.377041
v 15.637533 6.106267 21.217394
v 1.044105 6.106267 21.217394
v 1.044105 6.106272 6.624063
v 15.637533 6.106272 6.624063
v 15.797087 5.541906 6.464359
v 14.924238 5.940962 20.504232
v 1.757537 5.940962 20.504232
v 1.757537 5.940966 7.337210
v 14.924238 5.940966 7.337210
v 14.755369 5.235682 20.335144
v 1.926406 5.235682 20.335144
v 1.926406 5.235686 7.506371
v 14.755369 5.235686 7.506371
v 11.513106 5.470005 17.092869
v 5.168517 5.470005 17.092869
v 5.168517 5.470006 10.748571
v 11.513106 5.470006 10.748571
v 0.201499 9.200199 5.801682
v -14.391786 9.200199 5.801682
v -14.391786 9.200205 -8.791602
v -14.551347 8.635766 -8.951309
v 0.201499 9.200205 -8.791602
v 0.361060 8.635766 -8.951309
v -0.511796 9.034821 5.088534
v -13.678491 9.034821 5.088534
v -13.678491 9.034824 -8.078456
v -0.511796 9.034824 -8.078456
v -0.680665 8.329541 4.919375
v -13.509622 8.329541 4.919375
v -13.509622 8.329546 -7.909441
v -0.680665 8.329546 -7.909441
v -3.922921 8.563807 1.677262
v -10.267510 8.563807 1.677262
v -10.267510 8.563808 -4.667183
v -3.922921 8.563808 -4.667183
v 1.114356 6.106277 -9.226505
v -13.479074 6.106277 -9.226505
v -13.479074 6.106282 -23.819784
v -13.638642 5.541915 -23.979355
v 1.114356 6.106282 -23.819784
v 1.273910 5.541915 -23.979355
v 0.401061 5.940971 -9.939648
v -12.765641 5.940971 -9.939648
v -12.765641 5.940976 -23.106058
v 0.401061 5.940976 -23.106058
v 0.232192 5.235693 -10.108669
v -12.596772 5.235693 -10.108669
v -12.596772 5.235696 -22.937481
v 0.232192 5.235696 -22.937481
v -3.010072 5.470015 -13.350491
v -9.354661 5.470015 -13.350491
v -9.354661 5.470016 -19.695225
v -3.010072 5.470016 -19.695225
v 0.286590 0.089232 21.377041
v 0.286590 9.516404 21.377043
v -14.625962 9.516404 21.377043
v -14.625962 0.089232 21.377041
v 0.884536 0.089237 6.464358
v 0.884536 5.541906 6.464359
v 15.797087 5.541906 6.464359
v 15.797087 0.089237 6.464358
v 15.797087 0.089232 21.377041
v 15.797087 5.541901 21.377041
v 0.884536 5.541901 21.377041
v 0.884536 0.089232 21.377041
v -14.551347 0.089242 -8.951314
v -14.551347 8.635766 -8.951309
v 0.361060 8.635766 -8.951309
v 0.361060 0.089242 -8.951314
v -13.638642 0.089246 -23.979355
v -13.638642 5.541915 -23.979355
v 1.273910 5.541915 -23.979355
v 1.273910 0.089246 -23.979355
vt 0.082085 0.999658
vt 0.000000 0.999658
vt 0.000000 0.750000
vt 0.082085 0.750000
vt 0.082085 0.894402
vt 0.000000 0.894402
vt 0.166939 0.976335
vt 0.084854 0.976335
vt 0.084854 0.750000
vt 0.166939 0.750000
vt 0.249658 0.894402
vt 0.167573 0.894402
vt 0.167573 0.750000
vt 0.249658 0.750000
vt 0.122375 0.750000
vt 0.122375 0.999658
vt 0.127283 0.750000
vt 0.127283 0.894402
vt 0.000612 0.750000
vt 0.000612 0.976335
vt 0.122987 0.976335
vt 0.122987 0.750000
vt 0.008101 0.750000
vt 0.008101 0.894402
vt 0.130479 0.894402
vt 0.130479 0.750000
vn 1.000000 0.000000 0.000000
vn -1.000000 0.000000 0.000000
vn -0.662200 0.672200 -0.331100
vn -0.406300 0.417700 0.812700
vn 0.662200 0.672200 0.331100
vn 0.406300 0.417800 -0.812600
vn 0.000000 -1.000000 -0.000000
vn 0.000000 0.000000 -1.000000
vn -0.302100 0.256400 -0.918100
vn 0.530800 0.225200 -0.817000
vn -0.406300 0.417800 0.812600
vn -0.952100 0.197900 0.233300
vn -0.684600 0.284700 -0.671000
vn -0.406200 0.418100 0.812500
vn 0.662200 0.672300 0.331100
vn 0.000000 -0.000000 1.000000
vn 0.302100 0.256300 0.918200
vn -0.530600 0.225100 0.817200
vn -0.662200 0.672300 -0.331100
vn -0.406300 0.418000 0.812600
vn 0.406300 0.418000 -0.812600
vn 0.302000 0.256300 0.918200
vn -0.530400 0.225100 0.817300
vn 0.418100 0.354800 0.836200
vn 0.410300 0.903600 0.123300
vn -0.123400 0.903600 0.410300
vn -0.836300 0.354700 0.418100
vn -0.410400 0.903500 -0.123300
vn 0.123400 0.903600 -0.410300
vn -0.319500 0.812800 -0.487100
vn 0.487200 0.812700 -0.319600
vn 0.319600 0.812800 0.487100
vn -0.487200 0.812700 0.319600
vn -0.443900 0.874300 -0.196200
vn 0.196300 0.874400 -0.443800
vn 0.443900 0.874300 0.196300
vn -0.196300 0.874400 0.443800
vn 0.298200 0.787100 0.540000
vn -0.539900 0.787200 0.298100
vn -0.298100 0.787100 -0.540000
vn 0.539900 0.787200 -0.298100
vn 0.418200 0.354700 0.836200
vn 0.410400 0.903500 0.123300
vn -0.123300 0.903600 0.410300
vn -0.410400 0.903600 -0.123200
vn 0.123300 0.903600 -0.410300
vn 0.836200 0.354800 -0.418100
vn -0.319600 0.812800 -0.487100
vn 0.196200 0.874400 -0.443800
vn 0.298200 0.787100 0.539900
vn -0.298100 0.787100 -0.539900
vn 0.539900 0.787100 -0.298200
vn 0.410300 0.903600 0.123200
vn -0.410300 0.903600 -0.123200
vn -0.418100 0.354800 -0.836200
vn 0.836300 0.354700 -0.418100
vn -0.319600 0.812700 -0.487200
vn 0.319600 0.812700 0.487200
vn -0.487200 0.812700 0.319700
vn 0.443800 0.874400 0.196300
vn -0.196300 0.874300 0.443900
vn 0.298100 0.787200 0.539900
vn -0.298200 0.787200 -0.539900
vn -0.418100 0.354700 -0.836300
vn 0.123300 0.903500 -0.410400
vn 0.836300 0.354600 -0.418200
vn 0.319700 0.812600 0.487300
vn -0.487300 0.812700 0.319600
vn -0.443900 0.874300 -0.196300
vn -0.196300 0.874300 0.444000
vn -0.298100 0.787200 -0.539900
usemtl default_bldgs2.002
s 1
f 1/1/1 2/2/1 3/3/1
f 1/1/1 3/3/1 4/4/1
f 5/4/2 6/3/2 7/2/2
f 5/4/2 7/2/2 8/1/2
f 9/5/1 10/6/1 11/3/1
f 9/5/1 11/3/1 12/4/1
f 13/7/1 14/8/1 15/9/1
f 13/7/1 15/9/1 16/10/1
f 17/10/2 18/9/2 19/8/2
f 17/10/2 19/8/2 20/7/2
f 21/11/1 22/12/1 23/13/1
f 21/11/1 23/13/1 24/14/1
f 25/14/2 26/13/2 27/12/2
f 25/14/2 27/12/2 28/11/2
f 29/3/3 30/3/4 31/3/5
f 29/3/3 31/3/5 32/3/6
f 33/3/7 34/3/7 35/3/7
f 33/3/7 35/3/7 36/3/7
f 37/3/8 38/3/9 39/3/10
f 37/3/8 39/3/10 40/3/8
f 41/3/3 42/3/11 43/3/5
f 41/3/3 43/3/5 44/3/6
f 45/3/7 46/3/7 47/3/7
f 45/3/7 47/3/7 48/3/7
f 49/3/2 50/3/2 51/3/12
f 49/3/2 51/3/12 52/3/13
f 53/3/3 54/3/14 55/3/15
f 53/3/3 55/3/15 56/3/6
f 57/3/7 58/3/7 59/3/7
f 57/3/7 59/3/7 60/3/7
f 61/3/16 62/3/17 63/3/18
f 61/3/16 63/3/18 64/3/16
f 65/3/19 66/3/20 67/3/5
f 65/3/19 67/3/5 68/3/21
f 69/3/7 70/3/7 71/3/7
f 69/3/7 71/3/7 72/3/7
f 73/3/16 74/3/22 75/3/23
f 73/3/16 75/3/23 76/3/16
f 77/3/24 78/3/25 79/3/26
f 77/3/24 79/3/26 80/3/27
f 80/3/27 79/3/26 81/3/28
f 80/3/27 81/3/28 38/3/9
f 38/3/9 81/3/28 82/3/29
f 38/3/9 82/3/29 39/3/10
f 39/3/10 82/3/29 78/3/25
f 39/3/10 78/3/25 77/3/24
f 78/3/25 83/3/30 84/3/31
f 78/3/25 84/3/31 79/3/26
f 79/3/26 84/3/31 85/3/32
f 79/3/26 85/3/32 81/3/28
f 81/3/28 85/3/32 86/3/33
f 81/3/28 86/3/33 82/3/29
f 82/3/29 86/3/33 83/3/30
f 82/3/29 83/3/30 78/3/25
f 83/3/30 87/3/34 88/3/35
f 83/3/30 88/3/35 84/3/31
f 84/3/31 88/3/35 89/3/36
f 84/3/31 89/3/36 85/3/32
f 85/3/32 89/3/36 90/3/37
f 85/3/32 90/3/37 86/3/33
f 86/3/33 90/3/37 87/3/34
f 86/3/33 87/3/34 83/3/30
f 87/3/34 91/3/38 92/3/39
f 87/3/34 92/3/39 88/3/35
f 88/3/35 92/3/39 93/3/40
f 88/3/35 93/3/40 89/3/36
f 89/3/36 93/3/40 94/3/41
f 89/3/36 94/3/41 90/3/37
f 90/3/37 94/3/41 91/3/38
f 90/3/37 91/3/38 87/3/34
f 91/3/38 31/3/5 30/3/4
f 91/3/38 30/3/4 92/3/39
f 92/3/39 30/3/4 29/3/3
f 92/3/39 29/3/3 93/3/40
f 93/3/40 29/3/3 32/3/6
f 93/3/40 32/3/6 94/3/41
f 94/3/41 32/3/6 31/3/5
f 94/3/41 31/3/5 91/3/38
f 95/3/42 96/3/43 97/3/44
f 95/3/42 97/3/44 51/3/12
f 51/3/12 97/3/44 98/3/45
f 51/3/12 98/3/45 52/3/13
f 52/3/13 98/3/45 99/3/46
f 52/3/13 99/3/46 100/3/47
f 100/3/47 99/3/46 96/3/43
f 100/3/47 96/3/43 95/3/42
f 96/3/43 101/3/48 102/3/31
f 96/3/43 102/3/31 97/3/44
f 97/3/44 102/3/31 103/3/32
f 97/3/44 103/3/32 98/3/45
f 98/3/45 103/3/32 104/3/33
f 98/3/45 104/3/33 99/3/46
f 99/3/46 104/3/33 101/3/48
f 99/3/46 101/3/48 96/3/43
f 101/3/48 105/3/34 106/3/49
f 101/3/48 106/3/49 102/3/31
f 102/3/31 106/3/49 107/3/36
f 102/3/31 107/3/36 103/3/32
f 103/3/32 107/3/36 108/3/37
f 103/3/32 108/3/37 104/3/33
f 104/3/33 108/3/37 105/3/34
f 104/3/33 105/3/34 101/3/48
f 105/3/34 109/3/50 110/3/39
f 105/3/34 110/3/39 106/3/49
f 106/3/49 110/3/39 111/3/51
f 106/3/49 111/3/51 107/3/36
f 107/3/36 111/3/51 112/3/52
f 107/3/36 112/3/52 108/3/37
f 108/3/37 112/3/52 109/3/50
f 108/3/37 109/3/50 105/3/34
f 109/3/50 43/3/5 42/3/11
f 109/3/50 42/3/11 110/3/39
f 110/3/39 42/3/11 41/3/3
f 110/3/39 41/3/3 111/3/51
f 111/3/51 41/3/3 44/3/6
f 111/3/51 44/3/6 112/3/52
f 112/3/52 44/3/6 43/3/5
f 112/3/52 43/3/5 109/3/50
f 62/3/17 113/3/53 114/3/44
f 62/3/17 114/3/44 63/3/18
f 63/3/18 114/3/44 115/3/54
f 63/3/18 115/3/54 116/3/55
f 116/3/55 115/3/54 117/3/46
f 116/3/55 117/3/46 118/3/56
f 118/3/56 117/3/46 113/3/53
f 118/3/56 113/3/53 62/3/17
f 113/3/53 119/3/57 120/3/31
f 113/3/53 120/3/31 114/3/44
f 114/3/44 120/3/31 121/3/58
f 114/3/44 121/3/58 115/3/54
f 115/3/54 121/3/58 122/3/59
f 115/3/54 122/3/59 117/3/46
f 117/3/46 122/3/59 119/3/57
f 117/3/46 119/3/57 113/3/53
f 119/3/57 123/3/34 124/3/35
f 119/3/57 124/3/35 120/3/31
f 120/3/31 124/3/35 125/3/60
f 120/3/31 125/3/60 121/3/58
f 121/3/58 125/3/60 126/3/61
f 121/3/58 126/3/61 122/3/59
f 122/3/59 126/3/61 123/3/34
f 122/3/59 123/3/34 119/3/57
f 123/3/34 127/3/62 128/3/39
f 123/3/34 128/3/39 124/3/35
f 124/3/35 128/3/39 129/3/63
f 124/3/35 129/3/63 125/3/60
f 125/3/60 129/3/63 130/3/41
f 125/3/60 130/3/41 126/3/61
f 126/3/61 130/3/41 127/3/62
f 126/3/61 127/3/62 123/3/34
f 127/3/62 55/3/15 54/3/14
f 127/3/62 54/3/14 128/3/39
f 128/3/39 54/3/14 53/3/3
f 128/3/39 53/3/3 129/3/63
f 129/3/63 53/3/3 56/3/6
f 129/3/63 56/3/6 130/3/41
f 130/3/41 56/3/6 55/3/15
f 130/3/41 55/3/15 127/3/62
f 74/3/22 131/3/43 132/3/44
f 74/3/22 132/3/44 75/3/23
f 75/3/23 132/3/44 133/3/28
f 75/3/23 133/3/28 134/3/64
f 134/3/64 133/3/28 135/3/65
f 134/3/64 135/3/65 136/3/66
f 136/3/66 135/3/65 131/3/43
f 136/3/66 131/3/43 74/3/22
f 131/3/43 137/3/57 138/3/31
f 131/3/43 138/3/31 132/3/44
f 132/3/44 138/3/31 139/3/67
f 132/3/44 139/3/67 133/3/28
f 133/3/28 139/3/67 140/3/68
f 133/3/28 140/3/68 135/3/65
f 135/3/65 140/3/68 137/3/57
f 135/3/65 137/3/57 131/3/43
f 137/3/57 141/3/69 142/3/35
f 137/3/57 142/3/35 138/3/31
f 138/3/31 142/3/35 143/3/36
f 138/3/31 143/3/36 139/3/67
f 139/3/67 143/3/36 144/3/70
f 139/3/67 144/3/70 140/3/68
f 140/3/68 144/3/70 141/3/69
f 140/3/68 141/3/69 137/3/57
f 141/3/69 145/3/62 146/3/39
f 141/3/69 146/3/39 142/3/35
f 142/3/35 146/3/39 147/3/71
f 142/3/35 147/3/71 143/3/36
f 143/3/36 147/3/71 148/3/41
f 143/3/36 148/3/41 144/3/70
f 144/3/70 148/3/41 145/3/62
f 144/3/70 145/3/62 141/3/69
f 145/3/62 67/3/5 66/3/20
f 145/3/62 66/3/20 146/3/39
f 146/3/39 66/3/20 65/3/19
f 146/3/39 65/3/19 147/3/71
f 147/3/71 65/3/19 68/3/21
f 147/3/71 68/3/21 148/3/41
f 148/3/41 68/3/21 67/3/5
f 148/3/41 67/3/5 145/3/62
f 149/15/16 150/16/16 151/2/16
f 149/15/16 151/2/16 152/3/16
f 153/17/8 154/18/8 155/11/8
f 153/17/8 155/11/8 156/14/8
f 157/14/16 158/11/16 159/18/16
f 157/14/16 159/18/16 160/17/16
f 161/19/8 162/20/8 163/21/8
f 161/19/8 163/21/8 164/22/8
f 165/23/8 166/24/8 167/25/8
f 165/23/8 167/25/8 168/26/8
