# Blender v2.69 (sub 0) OBJ File: ''
# www.blender.org
mtllib box.mtl
o Cube_Cube.000
v 29.000000 1.999995 29.000000
v -1.000000 1.999995 29.000000
v -1.000000 2.000000 -1.000000
v 29.000000 2.000000 -1.000000
v 29.000000 1.999995 29.000000
v -1.000000 1.999995 29.000000
v -1.000000 2.000000 -1.000000
v 29.000000 2.000000 -1.000000
v 29.000000 4.999995 29.000000
v -1.000000 4.999995 29.000000
v -1.000000 5.000000 -0.999999
v 29.000000 5.000000 -0.999999
vt 0.819116 0.623633
vt 0.994232 0.401335
vt 0.562969 0.300140
vt 0.507010 0.512328
vn 1.000000 0.000000 0.000000
vn 0.000000 0.000000 1.000000
vn 0.000000 1.000000 0.000000
vn 0.000000 0.000000 -1.000000
vn -1.000000 0.000000 0.000000
usemtl None
s off
f 5/1/1 8/2/1 9/1/1
f 1/1/2 4/2/2 5/1/2
f 4/2/2 3/3/2 8/2/2
f 2/4/2 1/1/2 6/4/2
f 3/3/2 2/4/2 7/3/2
f 11/3/3 10/4/3 12/2/3
f 8/2/4 7/3/4 12/2/4
f 6/4/2 5/1/2 10/4/2
f 7/3/5 6/4/5 11/3/5
f 8/2/1 12/2/1 9/1/1
f 4/2/2 8/2/2 5/1/2
f 3/3/2 7/3/2 8/2/2
f 1/1/2 5/1/2 6/4/2
f 2/4/2 6/4/2 7/3/2
f 10/4/3 9/1/3 12/2/3
f 7/3/4 11/3/4 12/2/4
f 5/1/2 9/1/2 10/4/2
f 6/4/5 10/4/5 11/3/5
