# Blender v2.69 (sub 0) OBJ File: 'cubeWithHole.blend'
# www.blender.org
mtllib cubeWithHole.mtl
o Cube
v -1.000000 -1.000000 1.000000
v -1.000000 -1.000000 -1.000000
v -0.950000 -1.000000 -0.000001
v -0.931746 -1.000000 -0.185337
v -0.877685 -1.000000 -0.363550
v -0.931746 -1.000000 0.185335
v -0.877686 -1.000000 0.363549
v -0.789897 -1.000000 0.527791
v -0.671752 -1.000000 0.671751
v -0.527792 -1.000000 0.789896
v -0.363550 -1.000000 0.877685
v -0.185336 -1.000000 0.931746
v -0.000000 -1.000000 0.950000
v 1.000000 -1.000000 1.000000
v 0.185336 -1.000000 0.931746
v 0.363549 -1.000000 0.877686
v 0.527792 -1.000000 0.789896
v 0.671751 -1.000000 0.671751
v 0.789896 -1.000000 0.527792
v 0.877686 -1.000000 0.363549
v 0.931746 -1.000000 0.185336
v 0.950000 -1.000000 -0.000000
v 1.000000 -1.000000 -1.000000
v 0.931746 -1.000000 -0.185336
v 0.877686 -1.000000 -0.363549
v 0.789896 -1.000000 -0.527792
v 0.671751 -1.000000 -0.671751
v 0.527792 -1.000000 -0.789896
v 0.363549 -1.000000 -0.877686
v 0.185336 -1.000000 -0.931746
v 0.000000 -1.000000 -0.950000
v -0.185334 -1.000000 -0.931746
v -0.363548 -1.000000 -0.877686
v -0.527791 -1.000000 -0.789897
v -0.671751 -1.000000 -0.671752
v -0.789896 -1.000000 -0.527793
v -1.000000 1.000000 -1.000000
v 1.000000 1.000000 -0.999999
v 0.999999 1.000000 1.000001
v -1.000000 1.000000 1.000000
v -0.000000 1.000000 0.950000
v 0.185336 1.000000 0.931746
v 0.363549 1.000000 0.877686
v -0.185336 1.000000 0.931746
v -0.363550 1.000000 0.877685
v -0.527792 1.000000 0.789896
v -0.671752 1.000000 0.671751
v -0.789897 1.000000 0.527791
v -0.877686 1.000000 0.363549
v -0.931746 1.000000 0.185335
v -0.950000 1.000000 -0.000001
v -0.931746 1.000000 -0.185337
v -0.877685 1.000000 -0.363550
v -0.789896 1.000000 -0.527793
v -0.671751 1.000000 -0.671752
v -0.527791 1.000000 -0.789897
v -0.363548 1.000000 -0.877686
v -0.185334 1.000000 -0.931746
v 0.000000 1.000000 -0.950000
v 0.185336 1.000000 -0.931746
v 0.363549 1.000000 -0.877686
v 0.527792 1.000000 -0.789896
v 0.671751 1.000000 -0.671751
v 0.789896 1.000000 -0.527792
v 0.877686 1.000000 -0.363549
v 0.931746 1.000000 -0.185336
v 0.950000 1.000000 -0.000000
v 0.931746 1.000000 0.185336
v 0.877686 1.000000 0.363549
v 0.789896 1.000000 0.527792
v 0.671751 1.000000 0.671751
v 0.527792 1.000000 0.789896
vt 0.236104 0.894948
vt 0.318225 0.938843
vt 0.000000 1.000000
vt 0.164124 0.835875
vt 0.105052 0.763896
vt 0.061157 0.681774
vt 0.034127 0.592667
vt 0.025000 0.500000
vt 0.000000 0.000000
vt 0.034127 0.407332
vt 0.061157 0.318225
vt 0.105052 0.236104
vt 0.164124 0.164124
vt 0.236104 0.105052
vt 0.318225 0.061157
vt 0.407332 0.034127
vt 0.500000 0.025000
vt 1.000000 0.000000
vt 0.592668 0.034127
vt 0.681774 0.061157
vt 0.763896 0.105052
vt 0.835876 0.164124
vt 0.894948 0.236104
vt 0.938843 0.318225
vt 0.965873 0.407332
vt 0.975000 0.500000
vt 1.000000 1.000000
vt 0.965873 0.592668
vt 0.938843 0.681775
vt 0.894948 0.763896
vt 0.835876 0.835876
vt 0.763896 0.894948
vt 0.681774 0.938843
vt 0.592668 0.965873
vt 0.500000 0.975000
vt 0.407332 0.965873
vt 0.164124 0.835876
vt 0.034127 0.592668
vt 0.592667 0.034127
vt 0.763895 0.105051
vt 0.835875 0.164124
vt 0.938843 0.681774
vt 0.681775 0.938843
vn 0.000000 -1.000000 0.000000
vn 0.000000 -1.000000 -0.000001
vn 0.000000 -1.000000 0.000001
vn 0.000000 -1.000000 -0.000002
vn 0.000000 -1.000000 0.000004
vn 0.000000 -1.000000 -0.000003
vn 0.000000 1.000000 0.000000
vn 0.000000 1.000000 0.000001
vn 0.000000 1.000000 -0.000001
vn 0.000000 1.000000 -0.000002
vn 1.000000 -0.000000 0.000001
vn -0.000000 0.000000 1.000000
vn -1.000000 -0.000000 -0.000000
vn 0.000000 0.000000 -1.000000
vn 1.000000 0.000000 0.000000
vn -0.195090 0.000000 0.980785
vn -0.382683 0.000000 0.923880
vn -0.555570 0.000000 0.831470
vn -0.555570 0.000000 0.831469
vn -0.707107 0.000000 0.707107
vn -0.831470 0.000000 0.555570
vn -0.923880 0.000000 0.382683
vn -0.980785 0.000000 0.195091
vn -0.980785 0.000000 -0.195090
vn -0.923880 0.000000 -0.382683
vn -0.831470 0.000000 -0.555570
vn -0.707107 0.000000 -0.707107
vn -0.555570 0.000000 -0.831469
vn -0.555570 0.000000 -0.831470
vn -0.382683 0.000000 -0.923880
vn -0.195090 0.000000 -0.980785
vn 0.195091 0.000000 -0.980785
vn 0.382684 0.000000 -0.923879
vn 0.555571 0.000000 -0.831469
vn 0.707107 0.000000 -0.707106
vn 0.831470 0.000000 -0.555570
vn 0.923880 0.000000 -0.382683
vn 0.980785 0.000000 -0.195089
vn 0.980785 0.000000 0.195091
vn 0.923879 0.000000 0.382685
vn 0.923879 0.000000 0.382684
vn 0.831469 0.000000 0.555571
vn 0.707106 0.000000 0.707108
vn 0.555569 0.000000 0.831470
vn 0.382682 0.000000 0.923880
vn 0.195089 0.000000 0.980786
vn 0.195089 0.000000 0.980785
vn -0.000001 0.000000 1.000000
usemtl Material
s off
f 36/1/1 5/2/1 2/3/1
f 2/3/1 35/4/1 36/1/1
f 2/3/1 34/5/1 35/4/1
f 2/3/2 33/6/2 34/5/2
f 2/3/3 32/7/3 33/6/3
f 2/3/1 31/8/1 32/7/1
f 2/3/1 23/9/1 31/8/1
f 23/9/1 30/10/1 31/8/1
f 23/9/1 29/11/1 30/10/1
f 23/9/1 28/12/1 29/11/1
f 23/9/1 27/13/1 28/12/1
f 23/9/1 26/14/1 27/13/1
f 23/9/1 25/15/1 26/14/1
f 23/9/1 24/16/1 25/15/1
f 23/9/1 22/17/1 24/16/1
f 23/9/1 14/18/1 22/17/1
f 14/18/1 21/19/1 22/17/1
f 14/18/1 20/20/1 21/19/1
f 14/18/1 19/21/1 20/20/1
f 14/18/1 18/22/1 19/21/1
f 14/18/1 17/23/1 18/22/1
f 14/18/2 16/24/2 17/23/2
f 14/18/3 15/25/3 16/24/3
f 14/18/4 13/26/4 15/25/4
f 14/18/5 1/27/5 13/26/5
f 1/27/6 12/28/6 13/26/6
f 1/27/3 11/29/3 12/28/3
f 1/27/1 10/30/1 11/29/1
f 1/27/1 9/31/1 10/30/1
f 1/27/1 8/32/1 9/31/1
f 1/27/1 7/33/1 8/32/1
f 1/27/1 6/34/1 7/33/1
f 1/27/1 3/35/1 6/34/1
f 5/2/1 4/36/1 2/3/1
f 4/36/1 3/35/1 2/3/1
f 1/27/1 2/3/1 3/35/1
f 72/1/7 43/2/7 39/3/7
f 39/3/7 71/37/7 72/1/7
f 39/3/7 70/5/7 71/37/7
f 39/3/7 69/6/7 70/5/7
f 39/3/7 68/38/7 69/6/7
f 39/3/7 67/8/7 68/38/7
f 39/3/7 38/9/7 67/8/7
f 38/9/7 66/10/7 67/8/7
f 38/9/7 65/11/7 66/10/7
f 38/9/7 64/12/7 65/11/7
f 38/9/7 63/13/7 64/12/7
f 38/9/7 62/14/7 63/13/7
f 38/9/7 61/15/7 62/14/7
f 38/9/7 60/16/7 61/15/7
f 38/9/7 59/17/7 60/16/7
f 38/9/8 37/18/8 59/17/8
f 37/18/7 58/39/7 59/17/7
f 37/18/9 57/20/9 58/39/9
f 37/18/8 56/40/8 57/20/8
f 37/18/7 55/41/7 56/40/7
f 37/18/7 54/23/7 55/41/7
f 37/18/7 53/24/7 54/23/7
f 37/18/7 52/25/7 53/24/7
f 37/18/7 51/26/7 52/25/7
f 37/18/7 40/27/7 51/26/7
f 40/27/7 50/28/7 51/26/7
f 40/27/7 49/42/7 50/28/7
f 40/27/7 48/30/7 49/42/7
f 40/27/7 47/31/7 48/30/7
f 40/27/7 46/32/7 47/31/7
f 40/27/7 45/43/7 46/32/7
f 40/27/8 44/34/8 45/43/8
f 40/27/8 41/35/8 44/34/8
f 43/2/10 42/36/10 39/3/10
f 42/36/7 41/35/7 39/3/7
f 40/27/10 39/3/10 41/35/10
f 38/18/11 39/27/11 23/9/11
f 1/3/12 14/9/12 40/27/12
f 1/9/13 40/18/13 2/3/13
f 23/18/14 2/27/14 38/9/14
f 39/27/15 14/3/15 23/9/15
f 14/9/12 39/18/12 40/27/12
f 40/18/13 37/27/13 2/3/13
f 2/27/14 37/3/14 38/9/14
s 1
f 30/9/16 60/18/16 31/3/12
f 29/9/17 61/18/17 30/3/16
f 28/9/18 62/18/19 29/3/17
f 27/9/20 63/18/20 28/3/18
f 26/9/21 64/18/21 27/3/20
f 25/9/22 65/18/22 26/3/21
f 24/9/23 66/18/23 25/3/22
f 22/9/13 67/18/13 24/3/23
f 21/9/24 68/18/24 22/3/13
f 20/9/25 69/18/25 21/3/24
f 19/9/26 70/18/26 20/3/25
f 18/9/27 71/18/27 19/3/26
f 17/9/28 72/18/29 18/3/27
f 16/9/30 43/18/30 17/3/28
f 15/9/31 42/18/31 16/3/30
f 13/9/14 41/18/14 15/3/31
f 12/9/32 44/18/32 13/3/14
f 11/9/33 45/18/33 12/3/32
f 10/9/34 46/18/34 11/3/33
f 9/9/35 47/18/35 10/3/34
f 8/9/36 48/18/36 9/3/35
f 7/9/37 49/18/37 8/3/36
f 6/9/38 50/18/38 7/3/37
f 3/9/11 51/18/11 6/3/38
f 4/9/39 52/18/39 3/3/11
f 5/9/40 53/18/41 4/3/39
f 36/9/42 54/18/42 5/3/40
f 35/9/43 55/18/43 36/3/42
f 34/9/44 56/18/44 35/3/43
f 33/9/45 57/18/45 34/3/44
f 58/9/46 32/18/47 59/3/48
f 32/9/47 58/18/46 33/3/45
f 60/18/16 59/27/48 31/3/12
f 61/18/17 60/27/16 30/3/16
f 62/18/19 61/27/17 29/3/17
f 63/18/20 62/27/19 28/3/18
f 64/18/21 63/27/20 27/3/20
f 65/18/22 64/27/21 26/3/21
f 66/18/23 65/27/22 25/3/22
f 67/18/13 66/27/23 24/3/23
f 68/18/24 67/27/13 22/3/13
f 69/18/25 68/27/24 21/3/24
f 70/18/26 69/27/25 20/3/25
f 71/18/27 70/27/26 19/3/26
f 72/18/29 71/27/27 18/3/27
f 43/18/30 72/27/29 17/3/28
f 42/18/31 43/27/30 16/3/30
f 41/18/14 42/27/31 15/3/31
f 44/18/32 41/27/14 13/3/14
f 45/18/33 44/27/32 12/3/32
f 46/18/34 45/27/33 11/3/33
f 47/18/35 46/27/34 10/3/34
f 48/18/36 47/27/35 9/3/35
f 49/18/37 48/27/36 8/3/36
f 50/18/38 49/27/37 7/3/37
f 51/18/11 50/27/38 6/3/38
f 52/18/39 51/27/11 3/3/11
f 53/18/41 52/27/39 4/3/39
f 54/18/42 53/27/41 5/3/40
f 55/18/43 54/27/42 36/3/42
f 56/18/44 55/27/43 35/3/43
f 57/18/45 56/27/44 34/3/44
f 32/18/47 31/27/12 59/3/48
f 58/18/46 57/27/45 33/3/45
